<svg xmlns="http://www.w3.org/2000/svg" id="prefix__bell-53" width="18.016" height="19.29" viewBox="0 0 18.016 19.29">
    <defs>
        <style>
            .prefix__cls-1{fill:#009783}
        </style>
    </defs>
    <g id="prefix__Group_1439" data-name="Group 1439">
        <path id="prefix__Path_2296" d="M19.872 15.131s-2.443-2.838-2.443-5.676V7.039A6.262 6.262 0 0 0 11 1a6.262 6.262 0 0 0-6.43 6.039v2.415c0 2.838-2.379 5.616-2.443 5.676a.615.615 0 0 0-.064.664.686.686 0 0 0 .579.3h16.716a.62.62 0 0 0 .579-.362.528.528 0 0 0-.065-.601z" class="prefix__cls-1" data-name="Path 2296" transform="translate(-1.991 -1)"/>
        <path id="prefix__Path_2297" d="M12.1 28a3.347 3.347 0 0 0 3.271 2.516A3.421 3.421 0 0 0 18.642 28z" class="prefix__cls-1" data-name="Path 2297" transform="translate(-6.363 -11.226)"/>
    </g>
</svg>
