<svg xmlns="http://www.w3.org/2000/svg" id="prefix__settings-gear-63" width="18.452" height="18.452" viewBox="0 0 18.452 18.452">
    <g id="prefix__Group_1440" data-name="Group 1440">
        <path id="prefix__Path_2298" d="M18.452 10.956V7.5h-2.533a6.851 6.851 0 0 0-.737-1.779l1.791-1.791-2.447-2.451-1.791 1.791a6.871 6.871 0 0 0-1.779-.737V0H7.5v2.533a6.851 6.851 0 0 0-1.779.737L3.926 1.479 1.479 3.926 3.27 5.717A6.871 6.871 0 0 0 2.533 7.5H0v3.46h2.533a6.851 6.851 0 0 0 .737 1.779l-1.791 1.787 2.447 2.447 1.791-1.791a6.859 6.859 0 0 0 1.779.737v2.533h3.46v-2.533a6.851 6.851 0 0 0 1.779-.737l1.791 1.791 2.447-2.447-1.791-1.791a6.879 6.879 0 0 0 .737-1.779h2.533zm-9.226 1.153a2.883 2.883 0 1 1 2.883-2.883 2.883 2.883 0 0 1-2.883 2.883z" data-name="Path 2298" style="fill:#009783"/>
    </g>
</svg>
