<svg id="Layer_2" data-name="Layer 2" xmlns="http://www.w3.org/2000/svg" width="24" height="24" viewBox="0 0 24 24">
  <defs>
    <style>
      .cls-1, .cls-2 {
        fill: #fff;
      }

      .cls-1 {
        opacity: 0;
      }
    </style>
  </defs>
  <g id="home">
    <rect id="Rectangle_2022" data-name="Rectangle 2022" class="cls-1" width="24" height="24"/>
    <rect id="Rectangle_2023" data-name="Rectangle 2023" class="cls-2" width="4" height="7" transform="translate(10 14)"/>
    <path id="Path_2305" data-name="Path 2305" class="cls-2" d="M20.42,10.18,12.71,2.3a1,1,0,0,0-1.42,0L3.58,10.19A2,2,0,0,0,3,11.62V20a2,2,0,0,0,1.89,2H8V13a1,1,0,0,1,1-1h6a1,1,0,0,1,1,1v9h3.11A2,2,0,0,0,21,20V11.62a2.07,2.07,0,0,0-.58-1.44Z"/>
  </g>
</svg>
