<svg xmlns="http://www.w3.org/2000/svg" width="71.001" height="70.998" viewBox="0 0 71.001 70.998">
    <g id="prefix__location" transform="translate(-6.306 -6.31)">
        <path id="prefix__Path_3508" fill="#dfeef4" d="M68.528 84.289H49.973a112.558 112.558 0 0 1-8.167 11.3 112.554 112.554 0 0 1-8.167-11.3H15.085l-8.779 23.016h71z" data-name="Path 3508" transform="translate(0 -29.997)"/>
        <path id="prefix__Path_3509" fill="#f45858" d="M52.186 6.31a18.9 18.9 0 0 0-18.9 18.9c-.111 18.03 18.9 40.39 18.9 40.39s19.007-22.361 18.9-40.39a18.9 18.9 0 0 0-18.9-18.9zm0 26.914a8.018 8.018 0 1 1 8.014-8.017 8.018 8.018 0 0 1-8.018 8.018z" data-name="Path 3509" transform="translate(-10.38)"/>
        <path id="prefix__Path_3510" fill="#f2da30" d="M79.958 89.625l-35.43 12.6L30.72 84.29h12.313a112.449 112.449 0 0 0 8.165 11.3 112.451 112.451 0 0 0 8.165-11.3h18.558z" data-name="Path 3510" transform="translate(-9.392 -29.997)"/>
        <path id="prefix__Path_3511" fill="#3ea2e5" d="M29.96 113.9l35.071-12.48 9.6 12.475z" data-name="Path 3511" transform="translate(-9.099 -36.587)"/>
    </g>
</svg>
