<svg xmlns="http://www.w3.org/2000/svg" width="68" height="66.931" viewBox="0 0 68 66.931">
    <g id="prefix__pills" transform="translate(0 -4.029)">
        <circle id="prefix__Ellipse_335" cx="12.48" cy="12.48" r="12.48" data-name="Ellipse 335" transform="translate(35.544 46.001)" style="fill:#f9f3f1"/>
        <path id="prefix__Path_3443" d="M309.727 356.685a12.479 12.479 0 0 1-17.648 0c-.175-.175-.345-.356-.507-.539a12.48 12.48 0 0 0 16.561-18.457 12.481 12.481 0 0 1 1.594 19z" data-name="Path 3443" transform="translate(-252.879 -289.379)" style="fill:#efe2dd"/>
        <g id="prefix__Group_3648" data-name="Group 3648" transform="translate(31.785 4.029)">
            <path id="prefix__Path_3444" d="M240.611 9.07a9.459 9.459 0 0 1 12.784-3.941l17.293 9.143A9.459 9.459 0 0 1 261.845 31l-17.293-9.143a9.459 9.459 0 0 1-3.941-12.787z" data-name="Path 3444" transform="translate(-239.512 -4.03)" style="fill:#fec165"/>
            <path id="prefix__Path_3445" d="M276.439 27.055c-.081.153-.166.3-.257.452a9.461 9.461 0 0 0-4.764-10.633l-17.292-9.143A9.456 9.456 0 0 0 241.6 11.22a9.463 9.463 0 0 1 13.6-6.092l17.3 9.143a9.46 9.46 0 0 1 3.939 12.784z" data-name="Path 3445" transform="translate(-241.322 -4.029)" style="fill:#fdb441"/>
            <path id="prefix__Path_3446" d="M342.643 63.483l8.843-16.725 8.646 4.572a9.459 9.459 0 1 1-8.843 16.725z" data-name="Path 3446" transform="translate(-328.957 -41.088)" style="fill:#6bd9e7"/>
            <path id="prefix__Path_3447" d="M413.3 64.118c-.045.086-.093.171-.141.256-.037.066-.077.132-.116.2a9.461 9.461 0 0 0-4.764-10.633l-8.879-4.698 1.31-2.48 8.647 4.571a9.46 9.46 0 0 1 3.943 12.784z" data-name="Path 3447" transform="translate(-378.18 -41.092)" style="fill:#2ed1e2"/>
        </g>
        <g id="prefix__Group_3649" data-name="Group 3649" transform="translate(0 26.258)">
            <path id="prefix__Path_3448" d="M29.8 174.239a9.459 9.459 0 0 1 .116 13.377l-13.711 13.951a9.459 9.459 0 0 1-13.493-13.261l13.711-13.951a9.459 9.459 0 0 1 13.377-.116z" data-name="Path 3448" transform="translate(0 -171.526)" style="fill:#7acaa6"/>
            <path id="prefix__Path_3449" d="M18.966 210.243c-.124-.121-.244-.246-.359-.376a9.461 9.461 0 0 0 11.552-1.52L43.87 194.4a9.456 9.456 0 0 0 .243-13 9.464 9.464 0 0 1 1.942 14.78l-13.712 13.947a9.461 9.461 0 0 1-13.377.116z" data-name="Path 3449" transform="translate(-16.138 -180.085)" style="fill:#57be92"/>
            <path id="prefix__Path_3450" d="M9.568 245.407l13.493 13.261-6.856 6.976a9.459 9.459 0 0 1-13.493-13.261z" data-name="Path 3450" transform="translate(0 -235.602)" style="fill:#ee6161"/>
            <path id="prefix__Path_3451" d="M18.966 339.575c-.07-.068-.137-.138-.2-.208-.052-.054-.1-.111-.154-.168a9.461 9.461 0 0 0 11.552-1.52l7.039-7.162 2 1.966-6.855 6.977a9.461 9.461 0 0 1-13.382.115z" data-name="Path 3451" transform="translate(-16.138 -309.418)" style="fill:#e94444"/>
        </g>
        <g id="prefix__Group_3650" data-name="Group 3650" transform="translate(42.551 53.007)">
            <path id="prefix__Path_3452" d="M330.59 384.043a.992.992 0 0 1-.7-.292l-8.96-8.951a1 1 0 1 1 1.408-1.407l8.956 8.956a1 1 0 0 1-.7 1.7z" data-name="Path 3452" transform="translate(-320.638 -373.096)" style="fill:#cdbfba"/>
        </g>
    </g>
</svg>
