<svg xmlns="http://www.w3.org/2000/svg" width="79.206" height="79.2" viewBox="0 0 79.206 79.2">
    <defs>
        <style>
            .prefix__cls-1{fill:#415a6b}.prefix__cls-1,.prefix__cls-6,.prefix__cls-7,.prefix__cls-8{stroke:#707070;stroke-width:.2px}.prefix__cls-6{fill:#f3f3f3}.prefix__cls-7{fill:#344a5e}.prefix__cls-8{fill:#fed298}
        </style>
    </defs>
    <g id="prefix__question" transform="translate(.106 .1)">
        <path id="prefix__Path_3453" d="M130.2 146.244c0 10.7-4.773 18.1-10.7 18.1s-10.7-7.406-10.7-18.1c0-7.571 4.773-9.71 10.7-9.71s10.7 2.139 10.7 9.71z" class="prefix__cls-1" data-name="Path 3453" transform="translate(-92.013 -115.467)"/>
        <path id="prefix__Path_3454" d="M129.008 273.067l-.165 6.09s-1.317 6.254.658 10.369c7.242-1.481 14.977-2.469 12.673-10.369v-6.09z" data-name="Path 3454" transform="translate(-108.6 -230.934)" style="fill:#f0ba7d;stroke:#707070;stroke-width:.2px"/>
        <path id="prefix__Path_3455" d="M126.41 378.491l6.583-22.219h-16.458l-7.735-2.14.329 24.358z" data-name="Path 3455" transform="translate(-92.012 -299.491)" style="fill:#ced6e0;stroke:#707070;stroke-width:.2px"/>
        <path id="prefix__Path_3456" d="M155.758 422.694l-2.3-16.294H149.5l-2.3 16.294z" data-name="Path 3456" transform="translate(-124.487 -343.694)" style="fill:#f3705a;stroke:#707070;stroke-width:.2px"/>
        <path id="prefix__Path_3457" d="M155.258 373.925l1.975-1.975-3.95-3.95-3.95 3.95 1.975 1.975z" data-name="Path 3457" transform="translate(-126.291 -311.219)" style="fill:#f05540;stroke:#707070;stroke-width:.2px"/>
        <path id="prefix__Path_3458" d="M115.865 312.533a5.53 5.53 0 0 0 0 2.963c.494 1.152 6.748 5.431 6.748 5.431l-5.76 5.925-3.785-7.571 1.151-4.281a6.086 6.086 0 0 1 .823-1.81 3.59 3.59 0 0 0 .823-.657z" class="prefix__cls-6" data-name="Path 3458" transform="translate(-95.621 -264.31)"/>
        <path id="prefix__Path_3459" d="M20.737 372.177L16.952 354.9l.165-8.229-11.356 5.263a8.367 8.367 0 0 0-4.937 7.077L0 372.177z" class="prefix__cls-7" data-name="Path 3459" transform="translate(0 -293.177)"/>
        <path id="prefix__Path_3460" d="M82.231 355.94H87.5l-3.785-28.473-6.09 11.027 3.127-.164-3.95 3.456z" class="prefix__cls-1" data-name="Path 3460" transform="translate(-64.95 -276.94)"/>
        <path id="prefix__Path_3461" d="M181.682 312.533a5.531 5.531 0 0 1 0 2.963c-.494 1.152-6.748 5.431-6.748 5.431l5.76 5.76 3.785-7.571-1.152-4.279a6.087 6.087 0 0 0-.823-1.81 1.4 1.4 0 0 1-.822-.494z" class="prefix__cls-6" data-name="Path 3461" transform="translate(-147.942 -264.31)"/>
        <path id="prefix__Path_3462" d="M236.2 372.177l-.987-13.167a8.367 8.367 0 0 0-4.937-7.077l-11.356-5.267.164 8.229-3.621 17.281z" class="prefix__cls-7" data-name="Path 3462" transform="translate(-182.22 -293.177)"/>
        <path id="prefix__Path_3463" d="M203.733 355.94H209l5.431-14.154-3.95-3.456 3.127.164-6.089-11.027z" class="prefix__cls-1" data-name="Path 3463" transform="translate(-172.298 -276.94)"/>
        <g id="prefix__Group_3652" data-name="Group 3652" transform="translate(15.662 26.333)">
            <ellipse id="prefix__Ellipse_336" cx="3.621" cy="1.646" class="prefix__cls-8" data-name="Ellipse 336" rx="3.621" ry="1.646" transform="rotate(82.149 -3.702 6.518)"/>
            <ellipse id="prefix__Ellipse_337" cx="3.621" cy="1.646" class="prefix__cls-8" data-name="Ellipse 337" rx="3.621" ry="1.646" transform="rotate(-82.149 19.1 -2.95)"/>
            <path id="prefix__Path_3464" d="M123.521 170.667c-1.646 4.115-5.267 7.242-11.027 7.406a17.942 17.942 0 0 0-.494 4.279c0 8.065 4.279 14.483 9.546 14.483s9.546-6.583 9.546-14.483a20.506 20.506 0 0 0-1.317-7.406 11.34 11.34 0 0 1-6.254-4.279z" class="prefix__cls-8" data-name="Path 3464" transform="translate(-110.381 -170.667)"/>
        </g>
        <path id="prefix__Path_3465" d="M299.108 18.1c0 10.04-8.723 18.1-19.421 18.1a27.027 27.027 0 0 1-3.785-.329l-9.546 7.406V31.271a17.246 17.246 0 0 1-6.09-13.167c0-10.039 8.723-18.1 19.421-18.1s19.421 8.061 19.421 18.096z" data-name="Path 3465" transform="translate(-220.108)" style="fill:#8ad7f8;stroke:#707070;stroke-width:.2px"/>
        <path id="prefix__Path_3466" d="M344.644 62.161h-3.785v-.988a5.636 5.636 0 0 1 .658-2.962 10.471 10.471 0 0 1 2.3-2.633 13.851 13.851 0 0 0 2.14-1.975 2.781 2.781 0 0 0 .494-1.646 2.346 2.346 0 0 0-.987-1.975 4.188 4.188 0 0 0-2.633-.823 4.554 4.554 0 0 0-2.633.823 5.826 5.826 0 0 0-1.481 2.633l-3.785-.494a6.709 6.709 0 0 1 2.139-4.444 8 8 0 0 1 5.431-1.81 8.456 8.456 0 0 1 5.6 1.81 5.716 5.716 0 0 1 2.14 4.279 5.464 5.464 0 0 1-.823 2.633 15.067 15.067 0 0 1-3.292 3.292 15.007 15.007 0 0 0-1.646 1.646 11.717 11.717 0 0 1 .163 2.634zm-3.786 3.456a2 2 0 0 1 1.975-1.975 2 2 0 0 1 1.975 1.975 2 2 0 0 1-1.975 1.975 2 2 0 0 1-1.974-1.975z" data-name="Path 3466" transform="translate(-283.255 -38.79)" style="fill:#fff;stroke:#707070;stroke-width:.2px"/>
    </g>
</svg>
