<svg xmlns="http://www.w3.org/2000/svg" width="70.228" height="73.327" viewBox="0 0 70.228 73.327">
    <defs>
        <style>
            .prefix__cls-1{fill:#a1887f}.prefix__cls-1,.prefix__cls-2,.prefix__cls-3,.prefix__cls-4,.prefix__cls-5,.prefix__cls-6,.prefix__cls-7{stroke:#707070;stroke-width:.2px}.prefix__cls-2{fill:#9c7b70}.prefix__cls-3{fill:#ffead2}.prefix__cls-4{fill:#faddc3}.prefix__cls-5{fill:#fff7f0}.prefix__cls-6{fill:#bcaaa4}.prefix__cls-7{fill:#f5d3b8}
        </style>
    </defs>
    <g id="prefix__Wheat_Bag" data-name="Wheat Bag" transform="translate(.1 .1)">
        <g id="prefix__Flat">
            <path id="prefix__Path_3467" d="M62.084 197.727c0 2.368-2.779 3.874-5.188 3.024-20.532 3.986-33.162 3.6-51.707 0-2.445.862-5.189-.662-5.189-3.024 0-.547 1.858-2.7 2.133-3.166-.312-1.294-1.024-5.382-1.024-15.7 0-3.918 2.309-15.157 3.093-18.864h53.68c.784 3.707 3.093 14.946 3.093 18.864 0 10.315-.712 14.4-1.024 15.7.285.462 2.133 2.618 2.133 3.166z" class="prefix__cls-1" data-name="Path 3467" transform="translate(0 -130.604)"/>
            <path id="prefix__Path_3468" d="M122.728 194.562c.279-1.294.917-5.382.917-15.7 0-3.918-2.068-15.157-2.77-18.864h-6.4a49.689 49.689 0 0 1-35.657 41.79c13.958 2.594 24.739 2.524 41.17-1.038a3.371 3.371 0 0 0 4.646-3.024c.004-.547-1.651-2.703-1.906-3.164z" class="prefix__cls-2" data-name="Path 3468" transform="translate(-62.554 -130.604)"/>
            <path id="prefix__Path_3469" d="M92.132 16.878H49.495a.385.385 0 0 1-.31-.614v-.005C52.844 11.682 64.721 0 70.813 0 76.465 0 88.8 11.708 92.438 16.259v.005a.385.385 0 0 1-.311.614z" class="prefix__cls-3" data-name="Path 3469" transform="translate(-43.014)"/>
            <path id="prefix__Path_3470" d="M231.358 39.046v-.005a79.079 79.079 0 0 0-14.285-13.031 22.858 22.858 0 0 1-9.366 13.65h23.341a.385.385 0 0 0 .311-.614z" class="prefix__cls-4" data-name="Path 3470" transform="translate(-177.731 -22.782)"/>
            <path id="prefix__Path_3471" d="M58.758 165.957H3.326a3 3 0 1 1 0-5.957h55.432a3 3 0 1 1 0 5.957z" class="prefix__cls-2" data-name="Path 3471" transform="translate(0 -136.854)"/>
            <circle id="prefix__Ellipse_338" cx="2" cy="2" r="2" class="prefix__cls-5" data-name="Ellipse 338" transform="translate(24.027 3.79)"/>
            <ellipse id="prefix__Ellipse_339" cx="1" cy="2" class="prefix__cls-5" data-name="Ellipse 339" rx="1" ry="2" transform="translate(28.027 7.79)"/>
            <ellipse id="prefix__Ellipse_340" cx="1.5" cy="2" class="prefix__cls-6" data-name="Ellipse 340" rx="1.5" ry="2" transform="translate(5.027 30.79)"/>
            <ellipse id="prefix__Ellipse_341" cx="1" cy=".5" class="prefix__cls-6" data-name="Ellipse 341" rx="1" ry=".5" transform="translate(8.027 37.79)"/>
            <path id="prefix__Path_3472" d="M58.758 133.957H3.326a3 3 0 1 1 0-5.957h55.432a3 3 0 1 1 0 5.957z" class="prefix__cls-1" data-name="Path 3472" transform="translate(0 -109.483)"/>
            <g id="prefix__Group_3657" data-name="Group 3657" transform="translate(24.158 4.228)">
                <ellipse id="prefix__Ellipse_342" cx="1.5" cy=".5" class="prefix__cls-7" data-name="Ellipse 342" rx="1.5" ry=".5" transform="translate(3.869 3.562)"/>
                <ellipse id="prefix__Ellipse_343" cx=".5" cy="1" class="prefix__cls-7" data-name="Ellipse 343" rx=".5" ry="1" transform="translate(8.869 -.438)"/>
                <ellipse id="prefix__Ellipse_344" cx="1" cy=".5" class="prefix__cls-7" data-name="Ellipse 344" rx="1" ry=".5" transform="translate(9.869 2.562)"/>
                <ellipse id="prefix__Ellipse_345" cx="2" cy="1.5" class="prefix__cls-7" data-name="Ellipse 345" rx="2" ry="1.5" transform="translate(11.869 -.438)"/>
                <ellipse id="prefix__Ellipse_346" cx=".5" cy="2" class="prefix__cls-7" data-name="Ellipse 346" rx=".5" ry="2" transform="translate(15.869 3.562)"/>
                <circle id="prefix__Ellipse_347" cx="1" cy="1" r="1" class="prefix__cls-7" data-name="Ellipse 347" transform="translate(18.869 7.562)"/>
                <ellipse id="prefix__Ellipse_348" cx="1.5" cy="1" class="prefix__cls-7" data-name="Ellipse 348" rx="1.5" ry="1" transform="translate(11.869 7.562)"/>
                <ellipse id="prefix__Ellipse_349" cx="1.5" cy="1" class="prefix__cls-7" data-name="Ellipse 349" rx="1.5" ry="1" transform="translate(6.869 7.562)"/>
                <ellipse id="prefix__Ellipse_350" cx="1.5" cy="1" class="prefix__cls-7" data-name="Ellipse 350" rx="1.5" ry="1" transform="translate(-.131 7.562)"/>
                <path id="prefix__Path_3473" d="M313.221 162.461a.993.993 0 0 1-1.339-.423l-3.206-6.166a.993.993 0 0 1 1.762-.916l3.206 6.166a.993.993 0 0 1-.423 1.339z" class="prefix__cls-7" data-name="Path 3473" transform="translate(-287.943 -136.7)"/>
                <path id="prefix__Path_3474" d="M228.043 206.748a.993.993 0 0 1-1.339-.423l-3.206-6.167a.993.993 0 1 1 1.762-.916l3.206 6.166a.993.993 0 0 1-.423 1.34z" class="prefix__cls-7" data-name="Path 3474" transform="translate(-213.335 -174.465)"/>
                <path id="prefix__Path_3475" d="M253.1 150.878a.993.993 0 0 1-1.339-.423l-4.122-7.928a.993.993 0 1 1 1.762-.916l4.122 7.928a.993.993 0 0 1-.423 1.339z" class="prefix__cls-7" data-name="Path 3475" transform="translate(-234.476 -125.232)"/>
                <path id="prefix__Path_3476" d="M395.492 427.023a.993.993 0 0 1-1.339-.423l-5.5-10.571 1.762-.916 5.5 10.571a.993.993 0 0 1-.423 1.339z" class="prefix__cls-7" data-name="Path 3476" transform="translate(-358.096 -358.285)"/>
                <path id="prefix__Path_3477" d="M273.357 194.355a8.092 8.092 0 0 1-5.171-9.947.977.977 0 0 1 1.282-.667 8.092 8.092 0 0 1 5.171 9.947.979.979 0 0 1-1.283.667z" class="prefix__cls-7" data-name="Path 3477" transform="translate(-252.351 -161.469)"/>
            </g>
            <path id="prefix__Path_3478" d="M258.2 197.672a1.1 1.1 0 0 0-1.128-.356c-.3.1-4.188 1.8-4.477 4.623-2.547-1.384-6.072.807-6.353 1.01a1.1 1.1 0 0 0-.356 1.128c.534 3.209 6.076 8.161 9.908 6.168l1.76-.915c3.296-1.713 2.961-9.372.646-11.658z" class="prefix__cls-4" data-name="Path 3478" transform="translate(-211.345 -168.125)"/>
            <path id="prefix__Path_3479" d="M264.413 225.253c-1.448.741-5.165 3.711-4.93 7.742-3.589-2.735-7.806-1.13-9.169-.411a.993.993 0 0 0-.42 1.331c.074.145 1.858 3.562 5.171 4.609 3.257 1.029 6.619-.667 6.87-.8h.006c.251-.13 3.57-1.909 4.6-5.165 1.046-3.314-.726-6.736-.8-6.88a.993.993 0 0 0-1.328-.426z" class="prefix__cls-7" data-name="Path 3479" transform="translate(-214.455 -191.854)"/>
            <path id="prefix__Path_3480" d="M282.864 260.744c-1.42.727-5.171 3.732-4.93 7.742-3.587-2.733-7.822-1.122-9.169-.411a.993.993 0 0 0-.42 1.331c.074.145 1.858 3.562 5.171 4.609 3.257 1.029 6.619-.667 6.869-.8h.006c.251-.13 3.57-1.909 4.6-5.165 1.046-3.313-.726-6.736-.8-6.88a.993.993 0 0 0-1.327-.426z" class="prefix__cls-4" data-name="Path 3480" transform="translate(-230.298 -222.097)"/>
            <path id="prefix__Path_3481" d="M301.316 296.233c-1.3.664-5.191 3.826-4.93 7.742-2.836-2.382-8.265-.889-9.169-.411a.993.993 0 0 0-.42 1.331c.074.145 1.858 3.562 5.171 4.609 3.257 1.029 6.619-.667 6.869-.8h.006c.251-.13 3.57-1.909 4.6-5.165 1.047-3.314-.726-6.736-.8-6.88a.993.993 0 0 0-1.327-.426z" class="prefix__cls-7" data-name="Path 3481" transform="translate(-246.139 -252.339)"/>
            <path id="prefix__Path_3482" d="M319.767 331.727c-1.47.753-5.151 3.718-4.93 7.742-2.84-2.385-8.265-.889-9.169-.411a.993.993 0 0 0-.42 1.331c.074.145 1.858 3.562 5.171 4.609 3.257 1.029 6.619-.667 6.869-.8h.006c.251-.13 3.57-1.909 4.6-5.165 1.046-3.313-.726-6.736-.8-6.88a.993.993 0 0 0-1.327-.426z" class="prefix__cls-4" data-name="Path 3482" transform="translate(-260.782 -280.924)"/>
            <path id="prefix__Path_3483" d="M481.036 144.935a.993.993 0 0 1-.993-.993v-6.95a.993.993 0 1 1 1.986 0v6.95a.993.993 0 0 1-.993.993z" class="prefix__cls-4" data-name="Path 3483" transform="translate(-413.982 -116.173)"/>
            <path id="prefix__Path_3484" d="M385.036 144.935a.993.993 0 0 1-.993-.993v-6.95a.993.993 0 1 1 1.986 0v6.95a.993.993 0 0 1-.993.993z" class="prefix__cls-4" data-name="Path 3484" transform="translate(-331.36 -116.173)"/>
            <path id="prefix__Path_3485" d="M433.036 106.921a.993.993 0 0 1-.993-.993v-8.935a.993.993 0 0 1 1.986 0v8.935a.993.993 0 0 1-.993.993z" class="prefix__cls-4" data-name="Path 3485" transform="translate(-371.939 -81.926)"/>
            <path id="prefix__Path_3486" d="M433.036 420.907a.993.993 0 0 1-.993-.993V408h1.986v11.914a.993.993 0 0 1-.993.993z" class="prefix__cls-7" data-name="Path 3486" transform="translate(-371.939 -347.826)"/>
            <path id="prefix__Path_3487" d="M418.3 155.53a8.092 8.092 0 0 1 0-11.211.977.977 0 0 1 1.445 0 8.092 8.092 0 0 1 0 11.211.979.979 0 0 1-1.445 0z" class="prefix__cls-4" data-name="Path 3487" transform="translate(-357.924 -122.831)"/>
            <path id="prefix__Path_3488" d="M396.477 184.876a1.1 1.1 0 0 0-.836-.836c-.314-.047-4.546-.336-6.105 2.037-1.621-2.4-5.76-2.085-6.1-2.034a1.1 1.1 0 0 0-.836.836c-1.006 3.094 1.627 10.043 5.946 10.043h1.984c3.71-.001 6.946-6.95 5.947-10.046z" class="prefix__cls-3" data-name="Path 3488" transform="translate(-328.442 -157.026)"/>
            <path id="prefix__Path_3489" d="M384.925 224c-1.626-.01-6.294.91-7.946 4.595-1.922-4.082-6.405-4.6-7.945-4.595a.993.993 0 0 0-.987.987c0 .163 0 4.017 2.462 6.474 2.415 2.415 6.18 2.462 6.463 2.462h.017c.283 0 4.048-.047 6.463-2.462 2.457-2.457 2.463-6.311 2.462-6.474a.993.993 0 0 0-.989-.987z" class="prefix__cls-4" data-name="Path 3489" transform="translate(-315.885 -191.254)"/>
            <path id="prefix__Path_3490" d="M384.925 264c-1.6-.009-6.309.926-7.946 4.595-1.921-4.079-6.423-4.6-7.945-4.595a.993.993 0 0 0-.987.987c0 .163 0 4.017 2.462 6.474 2.415 2.415 6.18 2.462 6.463 2.462h.017c.283 0 4.048-.047 6.463-2.462 2.457-2.457 2.463-6.311 2.462-6.474a.993.993 0 0 0-.989-.987z" class="prefix__cls-3" data-name="Path 3490" transform="translate(-315.885 -225.407)"/>
            <path id="prefix__Path_3491" d="M384.925 304c-1.457-.009-6.37 1-7.946 4.595-1.417-3.421-6.923-4.6-7.945-4.595a.993.993 0 0 0-.987.987c0 .163 0 4.017 2.462 6.474 2.415 2.415 6.18 2.462 6.463 2.462h.017c.283 0 4.048-.047 6.463-2.462 2.457-2.457 2.463-6.311 2.462-6.474a.993.993 0 0 0-.989-.987z" class="prefix__cls-4" data-name="Path 3491" transform="translate(-315.885 -259.56)"/>
            <path id="prefix__Path_3492" d="M384.925 344c-1.651-.01-6.286.923-7.946 4.595-1.419-3.426-6.923-4.6-7.945-4.595a.993.993 0 0 0-.987.987c0 .163 0 4.017 2.462 6.474 2.415 2.415 6.18 2.462 6.463 2.462h.017c.283 0 4.048-.047 6.463-2.462 2.457-2.457 2.463-6.311 2.462-6.474a.993.993 0 0 0-.989-.987z" class="prefix__cls-3" data-name="Path 3492" transform="translate(-315.885 -293.712)"/>
            <path id="prefix__Path_3493" d="M398.5 344.187a16.034 16.034 0 0 1-15.19 6.792 6.853 6.853 0 0 0 .567.645c2.415 2.415 6.18 2.462 6.463 2.462h.017c.283 0 4.048-.047 6.463-2.462 2.457-2.457 2.463-6.311 2.462-6.474a.993.993 0 0 0-.782-.963z" class="prefix__cls-4" data-name="Path 3493" transform="translate(-329.253 -293.876)"/>
            <circle id="prefix__Ellipse_351" cx="2" cy="2" r="2" class="prefix__cls-5" data-name="Ellipse 351" transform="translate(52.027 49.79)"/>
            <circle id="prefix__Ellipse_352" cx=".5" cy=".5" r=".5" class="prefix__cls-5" data-name="Ellipse 352" transform="translate(57.027 53.79)"/>
            <circle id="prefix__Ellipse_353" cx="1" cy="1" r="1" class="prefix__cls-5" data-name="Ellipse 353" transform="translate(56.027 28.79)"/>
            <ellipse id="prefix__Ellipse_354" cx="1.5" cy=".5" class="prefix__cls-5" data-name="Ellipse 354" rx="1.5" ry=".5" transform="translate(59.027 29.79)"/>
            <ellipse id="prefix__Ellipse_355" cx="1.5" cy="2" class="prefix__cls-6" data-name="Ellipse 355" rx="1.5" ry="2" transform="translate(8.027 19.79)"/>
            <ellipse id="prefix__Ellipse_356" cx=".5" cy="1.5" class="prefix__cls-6" data-name="Ellipse 356" rx=".5" ry="1.5" transform="translate(16.027 20.79)"/>
        </g>
    </g>
</svg>
